# Blender v2.77 (sub 0) OBJ File: ''
# www.blender.org
o RFoot_Cube.007
v 0.044189 -0.012811 0.183411
v 0.044189 1.532467 0.183411
v 0.044189 -0.012811 -0.171142
v 0.044189 1.532467 -0.171142
v 0.422559 -0.012811 0.183411
v 0.422559 1.532467 0.183411
v 0.422559 -0.012811 -0.171142
v 0.422559 1.532467 -0.171142
v 0.547205 1.832921 0.084442
v 0.547205 2.923435 0.084442
v 0.547205 1.832921 -0.160793
v 0.547205 2.923435 -0.160793
v 0.696416 1.832922 0.084442
v 0.696416 2.923435 0.084442
v 0.696416 1.832922 -0.160793
v 0.696416 2.923435 -0.160793
v 0.436060 2.839912 0.190370
v 0.436060 3.051726 0.190370
v 0.436060 2.839912 -0.178205
v 0.436060 3.051726 -0.178205
v 0.709675 2.839912 0.190370
v 0.709675 3.051726 0.190370
v 0.709675 2.839912 -0.178205
v 0.709675 3.051726 -0.178205
v -0.468599 1.515498 0.388241
v -0.468599 3.090944 0.388241
v -0.468599 1.515498 -0.368845
v -0.468599 3.090944 -0.368845
v 0.468599 1.515499 0.388241
v 0.468599 3.090944 0.388241
v 0.468599 1.515499 -0.368845
v 0.468599 3.090944 -0.368845
v -0.468599 2.169414 0.388241
v -0.468599 2.169414 -0.368845
v 0.468599 2.169414 -0.368845
v 0.468599 2.169414 0.388241
v -0.285873 3.068098 0.323951
v -0.285873 3.571712 0.323951
v -0.285873 3.068098 -0.323951
v -0.285873 3.571712 -0.323951
v 0.285873 3.068098 0.323951
v 0.285873 3.571712 0.323951
v 0.285873 3.068098 -0.323951
v 0.285873 3.571712 -0.323951
v -0.691584 2.839912 0.193122
v -0.691584 3.051725 0.193122
v -0.691584 2.839912 -0.175453
v -0.691584 3.051725 -0.175453
v -0.417969 2.839912 0.193122
v -0.417969 3.051726 0.193122
v -0.417969 2.839912 -0.175453
v -0.417969 3.051726 -0.175453
v -0.687035 1.812211 0.107989
v -0.687035 2.902725 0.107989
v -0.687035 1.812211 -0.137246
v -0.687035 2.902725 -0.137246
v -0.537823 1.812211 0.107989
v -0.537823 2.902725 0.107989
v -0.537823 1.812211 -0.137246
v -0.537823 2.902725 -0.137246
v -0.424971 -0.012811 0.199481
v -0.424971 1.532467 0.199481
v -0.424971 -0.012811 -0.155072
v -0.424971 1.532467 -0.155072
v -0.046601 -0.012811 0.199481
v -0.046601 1.532467 0.199481
v -0.046601 -0.012811 -0.155072
v -0.046601 1.532467 -0.155072
vt 0.4574 0.0650
vt 0.4126 0.1097
vt 0.4126 0.0650
vt 0.3587 0.0711
vt 0.4035 0.1159
vt 0.3587 0.1159
vt 0.2996 0.1111
vt 0.3444 0.0664
vt 0.3444 0.1111
vt 0.3555 0.1678
vt 0.4003 0.1231
vt 0.4003 0.1678
vt 0.3547 0.0171
vt 0.3994 0.0618
vt 0.3547 0.0618
vt 0.3009 0.3614
vt 0.3426 0.3197
vt 0.3426 0.3614
vt 0.2952 0.3220
vt 0.2534 0.3638
vt 0.2534 0.3220
vt 0.2482 0.3213
vt 0.2065 0.3630
vt 0.2065 0.3213
vt 0.2955 0.3753
vt 0.2537 0.4171
vt 0.2537 0.3753
vt 0.2943 0.3109
vt 0.2526 0.2692
vt 0.2943 0.2692
vt 0.2733 0.6064
vt 0.3141 0.6472
vt 0.2733 0.6472
vt 0.2240 0.6952
vt 0.2648 0.6544
vt 0.2648 0.6952
vt 0.2742 0.7363
vt 0.3150 0.6955
vt 0.3150 0.7363
vt 0.2723 0.5569
vt 0.3130 0.5976
vt 0.2723 0.5976
vt 0.3153 0.6932
vt 0.2746 0.6525
vt 0.3153 0.6525
vt 0.6748 0.5124
vt 0.7766 0.4731
vt 0.7766 0.5124
vt 0.4325 0.3367
vt 0.5526 0.3759
vt 0.4325 0.3759
vt 0.2063 0.5221
vt 0.3081 0.4828
vt 0.3081 0.5221
vt 0.4344 0.6717
vt 0.5544 0.6324
vt 0.5544 0.6717
vt 0.4333 0.2157
vt 0.5534 0.3175
vt 0.4333 0.3175
vt 0.5512 0.5563
vt 0.4311 0.4545
vt 0.5512 0.4545
vt 0.4345 0.6191
vt 0.5546 0.5638
vt 0.5546 0.6191
vt 0.3230 0.5285
vt 0.4248 0.4732
vt 0.4248 0.5285
vt 0.4360 0.3877
vt 0.5560 0.4430
vt 0.4360 0.4430
vt 0.5613 0.5221
vt 0.6631 0.4668
vt 0.6631 0.5221
vt 0.6244 0.8123
vt 0.5377 0.8991
vt 0.5377 0.8123
vt 0.4444 0.8086
vt 0.5311 0.7219
vt 0.5311 0.8086
vt 0.3508 0.9026
vt 0.4376 0.8159
vt 0.4376 0.9026
vt 0.4440 0.9901
vt 0.5307 0.9034
vt 0.5307 0.9901
vt 0.5311 0.8998
vt 0.4444 0.8130
vt 0.5311 0.8130
vt 0.7536 0.6503
vt 0.7093 0.6946
vt 0.7093 0.6503
vt 0.6537 0.6477
vt 0.6980 0.6034
vt 0.6980 0.6477
vt 0.6537 0.7426
vt 0.6980 0.6983
vt 0.6980 0.7426
vt 0.6546 0.5558
vt 0.6989 0.6001
vt 0.6546 0.6001
vt 0.6985 0.6937
vt 0.6542 0.6494
vt 0.6985 0.6494
vt 0.7737 0.3372
vt 0.7325 0.3784
vt 0.7325 0.3372
vt 0.6851 0.3350
vt 0.7262 0.3762
vt 0.6851 0.3762
vt 0.6364 0.3778
vt 0.6776 0.3366
vt 0.6776 0.3778
vt 0.6850 0.4260
vt 0.7262 0.3849
vt 0.7262 0.4260
vt 0.6863 0.2930
vt 0.7275 0.3342
vt 0.6863 0.3342
vt 0.6968 0.0727
vt 0.6463 0.1232
vt 0.6463 0.0727
vt 0.5859 0.0776
vt 0.6364 0.1282
vt 0.5859 0.1282
vt 0.5203 0.1246
vt 0.5709 0.0740
vt 0.5709 0.1246
vt 0.5887 0.1875
vt 0.6392 0.1370
vt 0.6392 0.1875
vt 0.5858 0.0172
vt 0.6363 0.0677
vt 0.5858 0.0677
vt 0.4574 0.1097
vt 0.4035 0.0711
vt 0.2996 0.0664
vt 0.3555 0.1231
vt 0.3994 0.0171
vt 0.3009 0.3197
vt 0.2952 0.3638
vt 0.2482 0.3630
vt 0.2955 0.4171
vt 0.2526 0.3109
vt 0.3141 0.6064
vt 0.2240 0.6544
vt 0.2742 0.6955
vt 0.3130 0.5569
vt 0.2746 0.6932
vt 0.6748 0.4731
vt 0.5526 0.3367
vt 0.2063 0.4828
vt 0.4344 0.6324
vt 0.5534 0.2157
vt 0.4311 0.5563
vt 0.4345 0.5638
vt 0.3230 0.4732
vt 0.5560 0.3877
vt 0.5613 0.4668
vt 0.6244 0.8991
vt 0.4444 0.7219
vt 0.3508 0.8159
vt 0.4440 0.9034
vt 0.4444 0.8998
vt 0.7536 0.6946
vt 0.6537 0.6034
vt 0.6537 0.6983
vt 0.6989 0.5558
vt 0.6542 0.6937
vt 0.7737 0.3784
vt 0.7262 0.3350
vt 0.6364 0.3366
vt 0.6850 0.3849
vt 0.7275 0.2930
vt 0.6968 0.1232
vt 0.6364 0.0776
vt 0.5203 0.0740
vt 0.5887 0.1370
vt 0.6363 0.0172
vn -0.7071 0.0000 -0.7071
vn -0.5773 -0.5773 0.5773
vn -0.7071 0.0000 0.7071
vn 0.7071 0.0000 -0.7071
vn -0.5773 -0.5773 -0.5773
vn 0.7071 0.0000 0.7071
vn 0.5773 -0.5773 -0.5773
vn 0.5773 -0.5773 0.5773
vn 0.0000 0.7071 -0.7071
vn 0.0000 -0.7071 -0.7071
vn 0.5773 0.5773 0.5773
vn 0.5773 0.5773 -0.5773
vn 0.0000 0.7071 0.7071
vn 0.0000 -0.7071 0.7071
vn -0.5773 0.5773 0.5773
vn -0.5773 0.5773 -0.5773
s 1
f 4/1/1 1/2/2 2/3/3
f 8/4/4 3/5/5 4/6/1
f 6/7/6 7/8/7 8/9/4
f 2/10/3 5/11/8 6/12/6
f 3/13/5 5/14/8 1/15/2
f 12/16/1 9/17/2 10/18/3
f 12/19/1 15/20/7 11/21/5
f 14/22/6 15/23/7 16/24/4
f 10/25/3 13/26/8 14/27/6
f 11/28/5 13/29/8 9/30/2
f 20/31/9 23/32/7 19/33/10
f 22/34/11 23/35/7 24/36/12
f 18/37/13 21/38/8 22/39/11
f 19/40/10 21/41/8 17/42/14
f 24/43/12 18/44/13 22/45/11
f 34/46/1 25/47/2 33/48/3
f 34/49/1 31/50/7 27/51/5
f 36/52/6 31/53/7 35/54/4
f 33/55/3 29/56/8 36/57/6
f 27/58/5 29/59/8 25/60/2
f 32/61/12 26/62/15 30/63/11
f 26/64/15 36/65/6 30/66/11
f 30/67/11 35/68/4 32/69/12
f 28/70/16 35/71/4 34/72/1
f 28/73/16 33/74/3 26/75/15
f 40/76/16 37/77/3 38/78/15
f 40/79/16 43/80/4 39/81/1
f 42/82/11 43/83/4 44/84/12
f 38/85/15 41/86/6 42/87/11
f 44/88/12 38/89/15 42/90/11
f 48/91/16 45/92/2 46/93/15
f 48/94/16 51/95/10 47/96/5
f 46/97/15 49/98/14 50/99/13
f 47/100/5 49/101/14 45/102/2
f 52/103/9 46/104/15 50/105/13
f 56/106/1 53/107/2 54/108/3
f 60/109/4 55/110/5 56/111/1
f 58/112/6 59/113/7 60/114/4
f 54/115/3 57/116/8 58/117/6
f 55/118/5 57/119/8 53/120/2
f 64/121/1 61/122/2 62/123/3
f 68/124/4 63/125/5 64/126/1
f 66/127/6 67/128/7 68/129/4
f 62/130/3 65/131/8 66/132/6
f 63/133/5 65/134/8 61/135/2
f 4/1/1 3/136/5 1/2/2
f 8/4/4 7/137/7 3/5/5
f 6/7/6 5/138/8 7/8/7
f 2/10/3 1/139/2 5/11/8
f 3/13/5 7/140/7 5/14/8
f 12/16/1 11/141/5 9/17/2
f 12/19/1 16/142/4 15/20/7
f 14/22/6 13/143/8 15/23/7
f 10/25/3 9/144/2 13/26/8
f 11/28/5 15/145/7 13/29/8
f 20/31/9 24/146/12 23/32/7
f 22/34/11 21/147/8 23/35/7
f 18/37/13 17/148/14 21/38/8
f 19/40/10 23/149/7 21/41/8
f 24/43/12 20/150/9 18/44/13
f 34/46/1 27/151/5 25/47/2
f 34/49/1 35/152/4 31/50/7
f 36/52/6 29/153/8 31/53/7
f 33/55/3 25/154/2 29/56/8
f 27/58/5 31/155/7 29/59/8
f 32/61/12 28/156/16 26/62/15
f 26/64/15 33/157/3 36/65/6
f 30/67/11 36/158/6 35/68/4
f 28/70/16 32/159/12 35/71/4
f 28/73/16 34/160/1 33/74/3
f 40/76/16 39/161/1 37/77/3
f 40/79/16 44/162/12 43/80/4
f 42/82/11 41/163/6 43/83/4
f 38/85/15 37/164/3 41/86/6
f 44/88/12 40/165/16 38/89/15
f 48/91/16 47/166/5 45/92/2
f 48/94/16 52/167/9 51/95/10
f 46/97/15 45/168/2 49/98/14
f 47/100/5 51/169/10 49/101/14
f 52/103/9 48/170/16 46/104/15
f 56/106/1 55/171/5 53/107/2
f 60/109/4 59/172/7 55/110/5
f 58/112/6 57/173/8 59/113/7
f 54/115/3 53/174/2 57/116/8
f 55/118/5 59/175/7 57/119/8
f 64/121/1 63/176/5 61/122/2
f 68/124/4 67/177/7 63/125/5
f 66/127/6 65/178/8 67/128/7
f 62/130/3 61/179/2 65/131/8
f 63/133/5 67/180/7 65/134/8
